<svg width="124" height="31" viewBox="0 0 124 31" fill="none" xmlns="http://www.w3.org/2000/svg">
<path fill-rule="evenodd" clip-rule="evenodd" d="M93.2259 17.0768L93.8318 16.4512C94.1814 16.0884 94.5474 16.0974 94.9314 16.4831C95.3135 16.8689 95.3577 17.2157 95.066 17.5185L94.3262 18.281C94.6634 18.8716 94.8341 19.5482 94.8341 20.2687V27.6541C94.8341 29.8836 93.1359 30.9979 89.7406 30.9979H85.7774C82.3133 30.9979 80.5833 29.8836 80.5833 27.6541V23.3948C80.5833 21.1092 82.3345 19.9649 85.8388 19.9649H89.7406C90.9934 19.9649 92.0177 20.1238 92.8086 20.4326V19.9519C92.8086 18.9166 91.758 17.7034 89.6557 17.7034H87.7729C87.1987 17.7034 86.9136 17.4255 86.9136 16.8689C86.9136 16.3132 87.1987 16.0344 87.7729 16.0344H89.4097C91.0604 16.0344 92.3289 16.4272 93.2259 17.0768ZM90.0386 29.325C91.8838 29.325 92.8076 28.7674 92.8076 27.6521V23.2069C92.8076 22.1466 91.8838 21.6149 90.0386 21.6149H85.5559C83.549 21.6149 82.5452 22.2065 82.5452 23.3938V27.6521C82.5452 28.7674 83.549 29.325 85.5559 29.325H90.0386ZM123.249 19.9659H122.361C119.035 19.9659 117.371 21.0832 117.371 23.3148V30.1145C117.371 30.7051 117.702 30.9999 118.361 30.9999C119.018 30.9999 119.348 30.7051 119.348 30.1145V23.3118C119.348 22.1825 120.286 21.6169 122.159 21.6169H123.372C123.79 21.6169 124 21.3431 124 20.7934C124 20.2428 123.751 19.9659 123.249 19.9659ZM111.376 20.8124C111.376 20.2498 111.714 19.9659 112.385 19.9659C113.03 19.9659 113.352 20.2498 113.35 20.8114V27.795C113.35 29.9316 111.516 30.9979 107.848 30.9979H104.449C100.752 30.9979 98.9044 29.9326 98.9044 27.797V20.8224C98.9044 20.2428 99.227 19.9539 99.8739 19.9539C100.519 19.9539 100.842 20.2428 100.842 20.8224V27.796C100.842 28.8153 101.936 29.325 104.123 29.325H108.175C110.31 29.325 111.376 28.8303 111.376 27.8349V20.8124ZM76.7813 19.9659H75.8924C72.5665 19.9659 70.9035 21.0832 70.9035 23.3148V30.1145C70.9035 30.7051 71.2318 30.9999 71.8918 30.9999C72.5526 30.9999 72.8792 30.7051 72.8792 30.1145V23.3118C72.8792 22.1825 73.8171 21.6169 75.6924 21.6169H76.9028C77.3218 21.6169 77.531 21.3431 77.531 20.7934C77.531 20.2428 77.2819 19.9659 76.7813 19.9659ZM59.0033 17.5834C59.0033 18.233 58.6145 18.5568 57.8305 18.5568C57.0348 18.5568 56.6362 18.234 56.6362 17.5834C56.6362 16.9478 57.0348 16.631 57.8305 16.631C58.6145 16.631 59.0033 16.9478 59.0033 17.5834ZM64.9087 27.6521C64.9087 28.7674 63.9857 29.325 62.1405 29.325H57.6562C55.6511 29.325 54.6455 28.7674 54.6455 27.6521V23.3938C54.6455 22.2065 55.6511 21.6149 57.6562 21.6149H62.1405C63.9857 21.6149 64.9087 22.1466 64.9087 23.2069V27.6521ZM57.9414 19.9659H61.8409C65.238 19.9659 66.9385 21.1042 66.9385 23.3768V27.6551C66.9385 29.8846 65.238 30.9989 61.8409 30.9989H57.881C54.4152 30.9989 52.6837 29.8846 52.6837 27.6551V23.3968C52.6837 21.1102 54.4364 19.9659 57.9414 19.9659ZM61.8157 18.5568C62.5947 18.5568 62.9844 18.233 62.9844 17.5834C62.9844 16.9478 62.5947 16.631 61.8157 16.631C61.0069 16.631 60.6042 16.9478 60.6042 17.5834C60.6042 18.234 61.0069 18.5568 61.8157 18.5568ZM49.6467 19.9819C49.7798 20.0169 49.9034 20.0789 50.011 20.1688C50.1188 20.2567 50.208 20.3547 50.284 20.4566C50.3558 20.5606 50.3942 20.6655 50.3942 20.7774C50.3942 20.9433 50.3206 21.1222 50.1729 21.3161L43.1197 30.5452C42.878 30.848 42.6231 30.9989 42.3518 30.9989C42.0955 30.9989 41.8659 30.861 41.665 30.5852L34.6846 21.358C34.5654 21.2071 34.504 21.0283 34.504 20.8214C34.504 20.5875 34.6053 20.3787 34.8087 20.1988C35.0097 20.0199 35.2269 19.932 35.4533 19.932C35.5887 19.932 35.7195 19.9609 35.8493 20.0139C35.9777 20.0689 36.0797 20.1598 36.162 20.2817L42.391 28.7244L48.6553 20.1978C48.7892 20.0189 48.9925 19.929 49.2605 19.929C49.3838 19.929 49.5088 19.9459 49.6467 19.9819Z" fill="white"/>
<path fill-rule="evenodd" clip-rule="evenodd" d="M2.3436 0.720057C4.64705 -0.700028 7.64274 0.0450662 9.03863 2.3865L21.6101 23.4675C23.006 25.8099 22.2762 28.8584 19.9735 30.2805C17.6726 31.6995 14.6754 30.9554 13.2787 28.613L0.706962 7.53106C-0.687921 5.19062 0.0452375 2.14014 2.3436 0.720057ZM20.1405 6.21212C20.1405 2.78008 22.8731 0 26.2427 0C29.6139 0 32.3479 2.78008 32.3479 6.21212C32.3479 9.64216 29.6139 12.4222 26.2427 12.4222C22.8731 12.4222 20.1405 9.64216 20.1405 6.21212Z" fill="#FCBD00"/>
</svg>
